<svg width="918" height="362" viewBox="0 0 918 362" fill="none" xmlns="http://www.w3.org/2000/svg">
<path d="M137.5 43L1 238.5V272H150L153 236.5H39.7118C39.7118 236.5 141.5 92 143.5 87.5C145.5 83 140.768 60.3797 137.5 43Z" fill="#942D2D" stroke="#EBF2D5" stroke-width="2"/>
<path d="M193 272.5H240.5V237H189L193 272.5Z" fill="#942D2D" stroke="#EBF2D5" stroke-width="2"/>
<path fill-rule="evenodd" clip-rule="evenodd" d="M187.475 164.606C189.068 180.867 187.843 196.72 188.609 212.502C189.631 233.54 191.525 254.518 194.117 275.452C196.193 292.228 198.004 309.144 196.392 326.103C195.662 333.783 193.223 341.047 188.443 347.345C180.102 358.334 164.861 358.42 156.302 347.457C150.23 339.679 147.656 330.543 147.126 320.96C146.178 303.81 147.89 286.763 149.789 269.717C151.278 256.356 151.93 242.903 153.069 229.501C154.251 215.608 155.666 201.735 156.801 187.838L156.802 187.82C157.653 177.404 158.505 166.974 158.85 156.534C159.356 141.24 160.277 125.959 160.151 110.636C160.106 105.125 158.808 100.515 154.074 97.8562C142.394 91.297 138.47 80.9289 138.197 68.291C137.949 56.8311 135.677 45.4895 136.039 33.9721C136.244 27.465 137.186 21.0547 138.306 14.6758C138.758 12.0986 139.644 8.98208 142.938 8.99102C145.963 8.99922 146.793 11.9843 147.314 14.3738C149.359 23.7457 151.193 33.1634 153.385 43.9336C155.503 30.6659 153.437 17.673 162.998 6.21136C169.874 20.1618 167.417 34.4251 171.213 48.2641C173.281 43.6981 173.747 39.7116 174.153 35.6125C174.968 27.3804 174.398 18.9193 177.657 11.0514C178.367 9.3385 178.585 6.67606 181.248 6.95641C183.442 7.18731 183.722 9.56306 184.125 11.2312C186.008 19.023 186.395 26.9954 186.432 34.9723C186.449 38.8151 187.011 42.4833 188.293 46.5654C190.443 44.9063 190.031 43.0142 190.045 41.3522C190.103 34.0213 190.141 26.689 190.059 19.3587C190.022 16.1195 190.663 13.0747 191.915 10.1294C192.695 8.29404 193.442 5.73986 195.674 6.02143C198.21 6.34136 200.063 8.455 200.309 11.2229C200.663 15.1918 200.591 19.2011 201 23.1623C202.959 42.1769 205.019 61.1509 201.648 80.2598C200.128 88.872 195.433 95.2374 188.943 100.47C184.937 103.701 183.965 107.597 184.604 112.399C185.347 117.986 186.239 123.599 186.352 129.214C186.586 140.858 188.122 152.458 187.475 164.606ZM162.389 184.151C159.738 170.113 162.264 156.203 162.542 142.241C162.553 128.825 162.553 116.382 162.553 103.726C164.121 103.242 164.1 105.995 166.034 104.938C166.181 101.497 163.772 98.8918 161.972 96.0924C161.172 94.8486 160.138 93.6755 158.985 92.7509C147.799 83.7786 143.427 71.6903 142.499 57.8263C141.577 44.0556 140.785 30.3018 142.055 16.5176C142.096 16.0717 142.473 15.6567 142.942 14.7408C145.247 18.6684 145.24 22.8012 145.972 26.6821C147.698 35.8301 148.836 45.0963 151.647 54.017C152.226 55.8523 152.436 58.0115 155.828 58.6396C159.901 44.8405 156.797 29.9901 161.934 15.3986C164.311 22.5808 164.479 29.0495 164.949 35.3967C165.369 41.0686 166.339 46.6121 167.453 52.146C167.792 53.8283 167.972 56.1283 170.3 56.3722C172.53 56.6061 173.346 54.4857 174.176 52.9767C177.292 47.3132 178.358 41.0727 178.424 34.7151C178.491 28.371 179.477 22.1772 180.491 15.2873C182.998 21.6594 181.853 27.6208 182.055 33.4677C182.25 39.1578 182.796 44.7855 185.215 50.0196C186.018 51.7577 186.685 54.1651 189.058 54.1451C191.499 54.1245 191.896 51.6262 192.657 49.8652C194.201 46.2946 194.573 42.5166 194.517 38.6354C194.414 31.4733 194.488 24.3086 195.116 17.0646C196.082 24.4505 197.26 31.816 197.966 39.2267C199.133 51.4899 199.701 63.7476 198.155 76.0779C197.151 84.0761 194.632 90.9581 187.892 95.7519C180.446 101.048 178.704 108.493 180.269 116.845C181.536 123.61 181.198 130.445 181.829 137.23C182.859 148.312 183.14 159.511 182.956 170.647C182.661 188.489 183.829 206.283 184.275 224.091C184.744 242.843 187.645 261.464 189.645 280.129C191.395 296.46 193.813 312.848 191.021 329.332C190.263 333.803 188.915 338.141 186.42 341.929C178.766 353.552 171.293 352.582 163.132 343.548C158.113 337.991 156.009 330.815 155.529 323.336C154.752 311.211 155.302 299.128 156.3 287.011L156.503 284.541L156.503 284.539L156.503 284.538L156.503 284.537L156.503 284.536C157.117 277.093 157.73 269.648 158.326 262.203C159.293 250.126 161.154 238.083 160.516 225.906C160.422 224.113 160.924 222.234 158.653 220.427L155.85 253.326C155.092 248.867 155.946 245.474 156.252 242.025C157.164 231.762 157.769 221.472 158.552 211.197C158.763 208.429 157.387 205.11 161.092 203.392C161.442 203.23 161.537 202.152 161.477 201.525C160.916 195.667 163.462 189.837 162.389 184.151ZM151.453 310.45V301.251C151.829 294.544 152.195 288.796 152.562 283.049C152.997 292.213 151.507 301.297 151.453 310.45Z" fill="#EBF2D5"/>
<path d="M162.542 142.241C162.264 156.203 159.738 170.113 162.389 184.151C163.462 189.837 160.916 195.667 161.477 201.525C161.537 202.152 161.442 203.23 161.092 203.392C157.387 205.11 158.763 208.429 158.552 211.197C157.769 221.472 157.164 231.762 156.252 242.025C155.946 245.474 155.092 248.867 155.85 253.326L158.653 220.427C160.924 222.234 160.422 224.113 160.516 225.906C161.154 238.083 159.293 250.126 158.326 262.203C157.73 269.648 157.117 277.093 156.503 284.536L156.503 284.537L156.503 284.538L156.503 284.539L156.503 284.541L156.3 287.011C155.302 299.128 154.752 311.211 155.529 323.336C156.009 330.815 158.113 337.991 163.132 343.548C171.293 352.582 178.766 353.552 186.42 341.929C188.915 338.141 190.263 333.803 191.021 329.332C193.813 312.848 191.395 296.46 189.645 280.129C187.645 261.464 184.744 242.843 184.275 224.091C183.829 206.283 182.661 188.489 182.956 170.647C183.14 159.511 182.859 148.312 181.829 137.23C181.198 130.445 181.536 123.61 180.269 116.845C178.704 108.493 180.446 101.048 187.892 95.7519C194.632 90.9581 197.151 84.0761 198.155 76.0779C199.701 63.7476 199.133 51.4899 197.966 39.2267C197.26 31.816 196.082 24.4505 195.116 17.0646C194.488 24.3086 194.414 31.4733 194.517 38.6354C194.573 42.5166 194.201 46.2946 192.657 49.8652C191.896 51.6262 191.499 54.1245 189.058 54.1451C186.685 54.1651 186.018 51.7577 185.215 50.0196C182.796 44.7855 182.25 39.1578 182.055 33.4677C181.853 27.6208 182.998 21.6594 180.491 15.2873C179.477 22.1772 178.491 28.371 178.424 34.7151C178.358 41.0727 177.292 47.3132 174.176 52.9767C173.346 54.4857 172.53 56.6061 170.3 56.3722C167.972 56.1283 167.792 53.8283 167.453 52.146C166.339 46.6121 165.369 41.0686 164.949 35.3967C164.479 29.0495 164.311 22.5808 161.934 15.3986C156.797 29.9901 159.901 44.8405 155.828 58.6396C152.436 58.0115 152.226 55.8523 151.647 54.017C148.836 45.0963 147.698 35.8301 145.972 26.6821C145.24 22.8012 145.247 18.6684 142.942 14.7408C142.473 15.6567 142.096 16.0717 142.055 16.5176C140.785 30.3018 141.577 44.0556 142.499 57.8263C143.427 71.6903 147.799 83.7786 158.985 92.7509C160.138 93.6755 161.172 94.8486 161.972 96.0924C163.772 98.8918 166.181 101.497 166.034 104.938C164.1 105.995 164.121 103.242 162.553 103.726C162.553 116.382 162.553 128.825 162.542 142.241Z" fill="#942D2D"/>
<path d="M283.787 167.064L283.803 167.018L283.814 166.972C285.918 158.184 287.013 149.441 288.094 140.819C288.408 138.315 288.72 135.822 289.056 133.34C291.203 117.463 297.38 103.358 306.382 90.2383C314.55 78.3345 323.486 67.0055 332.841 56.0198C340.961 46.4852 350.734 38.7791 361.949 33.1343C366.011 31.0898 370 28.8966 373.966 26.699C374.351 26.486 374.735 26.2731 375.119 26.0602C378.703 24.0732 382.273 22.0937 385.89 20.2146C393.896 16.0548 402.079 12.4137 410.969 10.3409C427.158 6.5663 443.48 3.88008 460.067 2.62864C461.829 2.49568 463.588 2.35727 465.346 2.21901C471.335 1.74782 477.302 1.27838 483.288 1.03267C488.069 0.836398 492.86 1.52534 497.28 3.07659C498.943 3.66036 500.606 4.24124 502.268 4.8218C523.175 12.1237 543.939 19.3753 562.53 31.6948C587.434 48.1971 606.368 69.9907 620.738 96.0038C628.024 109.193 633.925 122.855 636.385 137.744C636.464 138.223 636.545 138.701 636.625 139.176C637.229 142.763 637.816 146.245 637.741 149.824C637.495 161.571 638.725 173.208 639.949 184.792C640.025 185.505 640.1 186.219 640.175 186.932C640.911 193.921 641.381 200.973 638.975 207.55C636.319 214.806 633.994 222.181 631.677 229.531C631.067 231.466 630.458 233.4 629.843 235.329C626.889 244.598 623.807 253.781 619.929 262.672C613.049 278.442 604.549 293.292 591.751 304.712C569.46 324.603 545.82 342.5 517.391 352.727C504.074 357.518 490.092 358.877 475.968 360.105C463.057 361.227 450.153 361.37 437.264 360.1C436.33 360.008 435.397 359.921 434.468 359.834C428.322 359.261 422.285 358.698 416.585 356.736C397.892 350.299 379.345 343.534 361.666 334.758C350.633 329.281 341.895 320.941 335.39 310.473C331.203 303.734 326.225 298.059 319.29 293.798C314.803 291.04 311.557 287.194 308.693 282.909C307.279 280.793 305.968 278.587 304.642 276.356L304.587 276.263C303.247 274.008 301.89 271.729 300.418 269.544C290.269 254.476 286.009 237.333 281.672 219.876C281.12 217.655 280.567 215.429 280 213.202C275.932 197.209 278.509 182.454 283.787 167.064ZM635.811 166.509L633.966 167.28L634.895 166.91C633.966 167.28 633.968 167.284 633.97 167.289L633.974 167.299C633.976 167.303 633.978 167.307 633.979 167.311C634.752 169.076 634.901 170.942 634.915 172.967C634.918 173.412 634.914 173.869 634.909 174.335C634.896 175.934 634.881 177.636 635.142 179.294C637.113 191.807 638.29 204.444 631.731 215.274C629.758 218.532 628.354 221.93 627.044 225.27C626.868 225.718 626.694 226.164 626.521 226.609C625.394 229.503 624.292 232.331 622.887 235.059C620.305 240.073 618.286 245.4 616.293 250.658C615.665 252.315 615.04 253.965 614.401 255.596C614.135 256.274 613.872 256.952 613.61 257.628C611.509 263.053 609.453 268.36 606.064 272.859C592.005 291.521 577.288 309.33 556.687 321.026C556.439 321.167 556.186 321.287 555.891 321.428C555.772 321.484 555.646 321.544 555.511 321.61C555.07 321.825 554.574 322.084 554.098 322.436C553.1 323.173 552.272 324.259 551.915 326.056L551.64 327.439L553.036 327.24C554.77 326.994 556.333 326.499 557.786 325.902C555.265 327.702 552.675 329.394 550.025 330.998C550.039 330.935 550.051 330.87 550.06 330.804C550.161 330.084 549.952 329.367 549.502 328.671C549.043 327.964 548.453 327.49 547.739 327.301C547.048 327.118 546.38 327.24 545.82 327.443C544.95 327.759 544.075 328.39 543.46 328.833C543.328 328.929 543.208 329.015 543.102 329.088C534.127 335.301 524.707 340.59 514.493 344.359C500.63 349.475 486.588 352.429 471.682 351.207C462.848 350.483 453.921 350.687 445.081 350.89C443.581 350.925 442.082 350.959 440.588 350.989C432.707 351.146 425.103 349.566 416.777 347.371L415.02 346.907L415.569 348.64C416.013 350.042 416.679 351.026 417.497 351.725C406.651 348.989 396.07 345.109 385.769 340.2C386.081 340.171 386.399 340.121 386.724 340.048L387.713 339.825L387.476 338.839C387.05 337.066 386.13 335.943 384.947 335.205C383.85 334.521 382.551 334.189 381.414 333.899L381.343 333.881L381.342 333.881L381.251 333.858C381.251 333.858 381.251 333.858 381.251 333.858C380.675 333.711 380.099 333.564 379.524 333.419C370.202 331.053 361.13 328.751 353.64 322.605C348.503 318.39 343.623 314.002 339.946 308.621C335.884 302.677 331.377 297.084 326.897 291.526C326.618 291.179 326.339 290.833 326.06 290.487C321.297 284.574 316.596 278.673 312.457 272.341C304.788 260.608 300.757 247.52 296.674 234.262C296.116 232.451 295.558 230.636 294.988 228.821C294.568 227.482 294.139 226.15 293.71 224.823C291.292 217.326 288.915 209.957 288.538 202.099C288.457 200.408 287.552 198.843 286.683 197.503L285.701 195.989L284.938 197.625C283.032 201.711 284.04 205.939 284.888 209.494C284.955 209.774 285.021 210.051 285.084 210.322C289.143 227.719 293.878 244.962 300.92 261.305C300.553 260.675 300.186 260.034 299.822 259.385C296.931 254.238 294.254 248.708 293.056 245.157C287.791 229.562 284.618 213.438 281.786 197.221C280.772 191.414 282.663 185.632 284.588 179.749C284.797 179.11 285.006 178.471 285.212 177.829C286.558 173.643 287.743 169.426 288.736 165.051C289.028 165.718 289.46 166.37 290.07 167L291.449 168.423L291.775 166.468C292.072 164.684 292.359 162.902 292.646 161.123C294.271 151.048 295.875 141.097 299.16 131.498C300.497 127.592 302.025 123.771 303.565 119.922C304.247 118.217 304.931 116.506 305.602 114.78C307.777 109.184 309.789 103.474 311.02 97.4664L309.202 96.7204C301.594 108.416 297.183 121.355 293.288 134.504C295.834 117.009 302.966 101.377 314.365 87.1138C314.957 87.5718 315.63 87.8853 316.367 87.9311C317.552 88.0046 318.583 87.3714 319.373 86.2725C322.422 82.0307 325.433 77.7595 328.652 73.1937C329.935 71.3752 331.25 69.5099 332.613 67.5811L334.306 65.187L331.503 66.0479C330.933 66.223 330.418 66.4375 329.947 66.681C334.328 61.1498 338.872 56.0395 343.887 51.3354C344.093 51.1428 344.193 51.1249 344.234 51.1197C344.306 51.1108 344.458 51.1177 344.805 51.2482C347.239 52.163 349.53 50.6194 350.226 48.9777C352.812 42.8757 358.223 40.1357 363.839 37.2923C364.264 37.0772 364.69 36.8616 365.116 36.6439C369.273 34.5189 373.364 32.2025 377.434 29.8983C379.796 28.561 382.151 27.2278 384.507 25.9384C390.957 22.4091 397.493 19.1634 404.49 16.8774C409.073 15.3799 413.724 14.2125 418.422 13.2219C414.163 14.4813 409.904 15.8069 405.635 17.2171L404.558 17.5728L405.046 18.5965C405.355 19.2457 405.732 19.7556 406.202 20.1079C406.688 20.4711 407.207 20.6178 407.708 20.64C408.184 20.6611 408.634 20.569 408.998 20.4788C409.173 20.4353 409.316 20.3965 409.445 20.3612C409.629 20.311 409.787 20.268 409.976 20.229C415.09 19.173 420.128 17.7861 425.128 16.4095C425.958 16.1809 426.787 15.9526 427.615 15.7262C433.447 14.1318 439.251 12.6247 445.181 11.7089C459.431 9.50797 473.789 9.86416 488.208 10.8124C493.116 11.1351 498.156 11.4113 503.224 10.184L505.858 9.54634L503.619 8.41048C508.064 9.85715 512.484 11.7111 516.863 14.0052C517.039 14.1566 517.129 14.2333 517.175 14.2723L517.223 14.3134L517.235 14.3228L517.249 14.3343L517.254 14.3385C517.258 14.3411 517.262 14.3445 517.267 14.3483C517.271 14.3508 517.295 14.369 517.327 14.3896C517.333 14.3936 517.39 14.4313 517.468 14.4655C517.477 14.4692 517.519 14.4887 517.585 14.5079C537.541 20.8412 556.047 29.8059 571.77 43.8456C571.869 44.0117 571.918 44.0945 571.94 44.1337C571.958 44.164 571.951 44.1533 571.939 44.1292C571.935 44.1221 571.926 44.1021 571.914 44.0752C571.909 44.0619 571.899 44.0372 571.888 44.0053C571.884 43.9943 571.876 43.9685 571.866 43.932C571.872 43.9366 571.877 43.9413 571.882 43.9459L572.549 43.2009L571.838 43.6292C571.84 43.5955 571.844 43.5589 571.85 43.5199C571.872 43.3934 571.946 43.116 572.218 42.9022C572.503 42.6776 572.814 42.6717 572.996 42.7011C573.002 42.702 573.007 42.7029 573.012 42.7038C573.11 42.7214 573.191 42.751 573.251 42.7782C573.292 42.797 573.323 42.8146 573.343 42.8262C573.343 42.8263 573.343 42.8263 573.344 42.8264L572.087 44.351L572.836 43.688C572.087 44.351 572.088 44.3523 572.09 44.3537L572.092 44.3564L572.097 44.3622L572.11 44.3754C572.118 44.3846 572.13 44.3967 572.144 44.4103C572.16 44.4258 572.227 44.4903 572.329 44.5501C572.331 44.5514 572.334 44.5527 572.336 44.5541C577.946 47.8602 582.851 52.107 587.319 56.914C605.297 76.2573 619.375 97.9923 628.329 122.911C633.338 136.852 634.266 151.325 633.843 166.072L633.842 166.124L633.846 166.175C633.869 166.484 633.881 166.671 633.888 166.782C633.891 166.821 633.893 166.85 633.894 166.873C633.896 166.905 633.896 166.917 633.896 166.917C633.896 166.917 633.896 166.914 633.896 166.909C633.896 166.905 633.896 166.895 633.896 166.882C633.896 166.88 633.896 166.878 633.896 166.876C633.897 166.867 633.898 166.826 633.905 166.774C633.908 166.752 633.917 166.689 633.941 166.611C633.953 166.573 633.978 166.5 634.026 166.416C634.057 166.361 634.126 166.25 634.252 166.145C634.275 166.125 634.301 166.105 634.329 166.086C634.347 166.073 634.367 166.061 634.387 166.049C634.651 165.893 634.97 165.868 635.252 165.976C635.315 166 635.371 166.028 635.419 166.058L634.843 166.101L635.509 166.12C635.585 166.179 635.636 166.237 635.664 166.27C635.691 166.303 635.713 166.334 635.731 166.361C635.754 166.396 635.77 166.425 635.781 166.445C635.792 166.465 635.8 166.484 635.807 166.499C635.81 166.504 635.812 166.51 635.814 166.515C635.813 166.513 635.812 166.511 635.811 166.509ZM636.915 172.954C636.901 170.923 636.762 168.78 635.886 166.684C635.884 166.651 635.882 166.614 635.879 166.57C635.871 166.455 635.86 166.297 635.844 166.078C636.266 151.241 635.336 136.499 630.211 122.235C621.154 97.0275 606.919 75.0651 588.784 55.5525C584.278 50.7045 579.295 46.3697 573.571 42.9613C573.53 42.8912 573.476 42.8011 573.406 42.685L573.328 42.5562L573.216 42.4559C557.242 28.155 538.478 19.0582 518.363 12.6567C518.299 12.6018 518.208 12.5237 518.078 12.413L517.993 12.3396L517.893 12.2871C496.547 1.06869 474.234 0.0908346 452.926 5.66158L453.179 7.62906C453.874 7.62906 454.704 7.65123 455.629 7.67595C458.139 7.743 461.35 7.82879 464.486 7.54162C466.628 7.34543 468.756 7.49336 470.954 7.6894C471.225 7.71365 471.499 7.73869 471.773 7.76384C473.692 7.9397 475.674 8.1213 477.672 8.08036C480.138 8.02981 482.57 8.04449 485.018 8.05927C486.834 8.07023 488.658 8.08124 490.51 8.06572C493.548 8.04027 496.457 8.1185 499.236 8.85508C495.66 9.25996 492.051 9.06077 488.339 8.81669C473.881 7.86587 459.347 7.49724 444.875 9.73233C438.824 10.6669 432.925 12.2011 427.088 13.797C426.253 14.0252 425.42 14.2546 424.587 14.4837C419.584 15.8611 414.617 17.2285 409.571 18.2703C409.337 18.3187 409.058 18.3938 408.822 18.4571C408.706 18.4884 408.601 18.5168 408.517 18.5376C408.202 18.6157 407.977 18.65 407.796 18.6419C407.772 18.6408 407.748 18.639 407.725 18.6362C418.43 15.1461 429.093 12.1745 439.843 9.43028L439.43 7.47518C437.906 7.73129 436.378 7.98266 434.85 8.23429C424.464 9.94359 414.002 11.6655 403.869 14.9763C396.698 17.3194 390.035 20.6338 383.547 24.1839C381.135 25.5039 378.757 26.8504 376.387 28.1927C372.349 30.4792 368.333 32.7534 364.206 34.863C363.759 35.0915 363.306 35.3199 362.849 35.5502C357.337 38.3303 351.269 41.391 348.384 48.1973C348.032 49.029 346.767 49.8491 345.509 49.3761C345.052 49.2042 344.537 49.0669 343.988 49.1349C343.409 49.2067 342.935 49.4869 342.519 49.8766C335.116 56.82 328.75 64.6093 322.475 73.2432L323.744 74.7189C325.22 73.954 326.274 72.842 327.19 71.7967C327.131 71.8808 327.072 71.9648 327.013 72.0488C323.796 76.6113 320.792 80.8712 317.749 85.1053C317.225 85.8341 316.786 85.9532 316.491 85.9349C316.128 85.9124 315.611 85.6631 315.018 84.9858L314.238 84.0938L313.49 85.0129C299.2 102.569 291.263 122.223 290.328 144.814L292.288 145.133C292.515 144.348 292.741 143.563 292.966 142.779C296.88 129.185 300.718 115.849 307.382 103.671C306.332 107.177 305.073 110.62 303.738 114.056C303.082 115.742 302.407 117.431 301.729 119.124C300.181 122.996 298.621 126.895 297.268 130.85C293.923 140.625 292.289 150.767 290.666 160.837C290.537 161.638 290.408 162.438 290.278 163.238C290.174 162.566 290.217 161.848 290.327 161.039C290.37 160.73 290.428 160.378 290.489 160.008C290.588 159.404 290.696 158.752 290.757 158.157C290.862 157.125 290.869 156.008 290.552 154.848L288.599 154.963C287.415 162.886 285.6 170.086 283.308 177.217C283.103 177.856 282.891 178.501 282.677 179.153C280.772 184.956 278.71 191.234 279.816 197.565C282.65 213.797 285.844 230.048 291.161 245.797C292.419 249.524 295.168 255.182 298.078 260.364C299.537 262.963 301.048 265.461 302.447 267.558C303.835 269.638 305.149 271.377 306.217 272.417L307.804 271.244C297.93 251.998 291.99 231.121 287.032 209.868C286.976 209.626 286.919 209.385 286.862 209.144C286.161 206.174 285.479 203.285 286.078 200.48C286.347 201.078 286.514 201.644 286.54 202.195C286.931 210.341 289.403 217.997 291.822 225.486C292.247 226.801 292.67 228.112 293.08 229.419C293.645 231.221 294.202 233.029 294.759 234.84C298.831 248.072 302.948 261.449 310.783 273.435C314.983 279.861 319.743 285.833 324.502 291.742C324.778 292.083 325.053 292.425 325.328 292.766C329.819 298.338 334.28 303.873 338.295 309.749C342.141 315.378 347.208 319.914 352.371 324.151C360.219 330.591 369.705 332.994 378.936 335.333C379.544 335.487 380.151 335.641 380.756 335.796L380.756 335.796L380.847 335.819L380.848 335.819C382.07 336.131 383.08 336.398 383.888 336.902C384.386 337.212 384.818 337.621 385.139 338.233C384.171 338.248 383.246 338.024 382.336 337.727C382.02 337.625 381.713 337.516 381.404 337.406L381.388 337.4C381.088 337.294 380.783 337.185 380.487 337.09C379.897 336.9 379.248 336.728 378.606 336.732L378.147 338.617C409.349 355.023 443.237 362.122 479.393 356.602L481.755 356.241L479.841 354.812C478.953 354.149 478.017 353.977 477.178 353.955C476.768 353.944 476.366 353.969 476.011 353.992C475.641 354.017 475.326 354.039 475.021 354.038L472.935 354.03C462.406 353.992 451.868 353.953 441.331 354.055C434.604 354.12 428.051 352.97 421.499 351.354C420.555 351.121 419.769 350.895 419.102 350.438C418.879 350.286 418.662 350.102 418.456 349.871C426.01 351.785 433.176 353.137 440.627 352.988C442.134 352.958 443.639 352.924 445.144 352.889C453.989 352.687 462.797 352.485 471.519 353.2C486.803 354.453 501.145 351.417 515.185 346.236C525.596 342.394 535.165 337.015 544.241 330.733C544.41 330.616 544.576 330.497 544.739 330.38C545.348 329.944 545.922 329.534 546.503 329.323C546.839 329.2 547.069 329.193 547.227 329.235C547.364 329.271 547.575 329.376 547.823 329.759C548.085 330.163 548.097 330.401 548.079 330.526C548.06 330.665 547.978 330.847 547.743 331.086C547.505 331.33 547.169 331.572 546.752 331.833C546.547 331.961 546.336 332.085 546.117 332.214L546.102 332.223C545.892 332.347 545.672 332.476 545.465 332.606C543.112 334.081 540.749 335.534 538.381 336.989C537.406 337.589 536.43 338.188 535.455 338.79L536.41 340.543C547.016 335.483 557.116 329.604 566.135 321.932L565.139 320.233C563.612 320.799 562.129 321.561 560.686 322.302C560.145 322.579 559.609 322.854 559.079 323.115C557.594 323.846 556.09 324.499 554.455 324.92C554.698 324.542 554.985 324.267 555.287 324.044C555.613 323.803 555.977 323.608 556.388 323.408C556.483 323.361 556.586 323.312 556.692 323.262C557.009 323.111 557.359 322.944 557.674 322.765C578.664 310.848 593.592 292.738 607.661 274.063C611.23 269.326 613.389 263.744 615.476 258.351C615.738 257.672 616 256.997 616.263 256.326C616.921 254.647 617.558 252.966 618.193 251.291C620.177 246.056 622.14 240.878 624.665 235.975C626.122 233.147 627.264 230.212 628.389 227.325C628.561 226.882 628.733 226.441 628.906 226.001C630.213 222.67 631.564 219.41 633.442 216.31C640.418 204.791 639.084 191.465 637.118 178.983C636.885 177.504 636.897 176.028 636.91 174.462C636.914 173.969 636.918 173.468 636.915 172.954ZM518.158 12.5918C518.162 12.593 518.166 12.5944 518.17 12.5959L517.203 14.2935C517.202 14.2944 517.202 14.2944 517.202 14.2944L517.201 14.2942L517.201 14.2937L517.2 14.2927L517.197 14.29L517.185 14.2792L517.171 14.2657C517.17 14.2645 517.167 14.2621 517.164 14.2585C517.156 14.2514 517.145 14.2399 517.132 14.226C517.125 14.2182 517.1 14.1905 517.071 14.1521C517.058 14.1351 517.025 14.0909 516.991 14.0293C516.989 14.0255 516.987 14.0209 516.984 14.0158L517.428 13.1723L516.902 13.7851C516.885 13.6873 516.87 13.5455 516.873 13.4472C516.914 13.2504 517.135 12.8693 517.32 12.7128C517.432 12.6537 517.604 12.6019 517.742 12.5733C517.811 12.5591 517.872 12.5507 517.913 12.55C517.926 12.5511 517.941 12.5527 517.957 12.5548C518.029 12.5639 518.118 12.581 518.158 12.5918ZM466.95 356.009C459.189 356.594 451.538 356.59 444.002 356.032C451.649 355.975 459.298 355.985 466.95 356.009ZM462.279 5.68612C473.247 3.82236 484.385 3.82992 495.434 6.2046C493.777 6.06493 492.123 6.05213 490.493 6.06579C488.713 6.0807 486.904 6.0701 485.087 6.05946C482.6 6.04488 480.097 6.03021 477.631 6.08078C475.754 6.11926 473.892 5.94904 471.962 5.77267C471.687 5.74748 471.41 5.72216 471.131 5.69731C468.927 5.50069 466.642 5.33584 464.304 5.54995C463.626 5.61197 462.949 5.65595 462.279 5.68612ZM599.995 291.807L600.005 291.794L600.014 291.78C600.384 291.24 600.789 290.713 601.215 290.17C601.285 290.08 601.356 289.989 601.427 289.898C601.783 289.445 602.151 288.977 602.502 288.498C603.348 287.344 604.15 286.06 604.61 284.519L602.891 283.584C594.24 293.728 585.033 303.309 575.244 312.34L576.497 313.893C585.182 307.783 593.266 300.978 599.995 291.807Z" fill="#942D2D" stroke="#EBF2D5" stroke-width="2"/>
<path d="M341.637 126.779C352.185 108.331 363.637 90.7375 380.948 78.5723C401.689 63.9964 424.672 53.9848 450.385 52.2614C458.901 51.6906 467.315 49.9963 475.907 50.217C479.486 50.3089 483.069 50.5158 486.373 51.6175C506.699 58.3931 526.97 65.347 543.755 79.4462C566.223 98.3184 582.015 121.422 588.05 150.467C589.237 156.181 589.152 162.201 589.246 168.087C589.348 174.435 589.958 180.704 590.929 186.96C591.574 191.119 591.273 195.396 589.911 199.209C584.707 213.781 581.098 228.906 574.594 243.027C567.186 259.114 555.914 271.81 541.615 282.14C526.232 293.254 510.811 304.285 491.693 307.937C471.136 311.865 450.291 313.576 429.838 308.327C414.725 304.447 400.133 298.446 386.375 290.919C378.773 286.76 372.927 280.407 368.387 272.952C366.928 270.556 365.666 267.775 363.194 266.418C352.595 260.602 347.499 250.302 341.666 240.587C333.024 226.194 330.958 209.792 327.567 193.814C326.86 190.48 327.302 186.899 328.389 183.736C333.216 169.687 334.45 154.956 337.036 140.481C337.872 135.805 339.462 131.365 341.637 126.779ZM424.974 60.6171C408.433 65.7331 393.443 74.0439 379.642 84.216C366.997 93.5358 358.885 107.081 349.934 119.696C344.217 127.753 340.631 136.893 339.515 146.69C338.078 159.309 336.024 171.754 332.144 183.861C331.501 185.866 331.137 187.902 331.371 189.964C333.397 207.758 336.61 225.264 346.179 240.807C350.469 247.774 353.735 255.721 361.124 260.253C365.814 263.129 369.27 266.953 372.032 271.601C377.005 279.969 383.955 286.367 392.794 290.266C404.932 295.62 417.123 301.175 429.954 304.464C450.292 309.676 470.902 307.901 491.297 304.065C508.593 300.812 522.877 291.264 536.819 281.21C549.377 272.153 560.489 261.775 568.089 247.957C576.858 232.013 580.61 214.254 586.915 197.424C587.31 196.37 587.099 195.085 587.15 193.906C587.671 182.083 585.107 170.416 585.361 158.612C585.448 154.581 584.905 150.644 583.898 146.798C577 120.466 562.183 99.2462 541.601 81.8173C526.523 69.0491 508.339 62.3728 490.134 55.7478C485.802 54.1713 481.467 53.1894 476.76 53.262C459.418 53.5295 442.577 57.1347 424.974 60.6171Z" fill="#EBF2D5"/>
<path d="M424.974 60.6171C408.433 65.7331 393.443 74.0439 379.642 84.216C366.997 93.5358 358.885 107.081 349.934 119.696C344.217 127.753 340.631 136.893 339.515 146.69C338.078 159.309 336.024 171.754 332.144 183.861C331.501 185.866 331.137 187.902 331.371 189.964C333.397 207.758 336.61 225.264 346.179 240.807C350.469 247.774 353.735 255.721 361.124 260.253C365.814 263.129 369.27 266.953 372.032 271.601C377.005 279.969 383.955 286.367 392.794 290.266C404.932 295.62 417.123 301.175 429.954 304.464C450.292 309.676 470.902 307.901 491.297 304.065C508.593 300.812 522.877 291.264 536.819 281.21C549.377 272.153 560.489 261.775 568.089 247.957C576.858 232.013 580.61 214.254 586.915 197.424C587.31 196.37 587.099 195.085 587.15 193.906C587.671 182.083 585.107 170.416 585.361 158.612C585.448 154.581 584.905 150.644 583.898 146.798C577 120.466 562.183 99.2462 541.601 81.8173C526.523 69.0491 508.339 62.3728 490.134 55.7478C485.802 54.1713 481.467 53.1894 476.76 53.262C459.418 53.5295 442.577 57.1347 424.974 60.6171Z" fill="#942D2D"/>
<path d="M635.126 166.651C635.496 178.578 635.879 190.515 634.958 202.636C630.891 201.907 631.48 199.652 631.465 197.878C631.396 189.758 631.298 181.634 631.443 173.516C631.895 148.37 628.187 124.134 616.223 101.619C615.514 100.285 614.393 98.8433 615.525 96.876C618.127 97.5197 618.388 100.022 619.291 101.801C629.175 121.29 634.918 141.814 634.528 163.838C634.515 164.562 634.737 165.29 634.996 166.349C635.143 166.683 635.134 166.66 635.126 166.651Z" fill="#EBF2D5"/>
<path d="M573.062 43.4289C582.72 54.3185 592.359 65.245 602.076 76.1016C606.106 80.6033 610.48 84.8317 612.536 90.7263C613.05 92.1982 613.954 93.6419 613.139 95.4026C600.358 75.3362 582.535 59.6437 567.153 41.2134C569.72 41.2087 570.85 42.8939 572.808 43.3705C573.095 43.4606 573.074 43.4377 573.062 43.4289Z" fill="#EBF2D5"/>
<path d="M518.089 13.2895C525.141 17.0378 532.209 20.7954 539.847 24.8559C535.472 26.1295 516.583 17.2536 513.465 13.0922C514.858 11.7122 516.175 13.2699 517.821 13.2595C518.135 13.3244 518.106 13.2988 518.089 13.2895Z" fill="#EBF2D5"/>
<path d="M551.903 33.2447C547.816 33.4419 546.048 30.8588 544.638 27.7983C547.587 28.9364 550.769 29.7074 551.903 33.2447Z" fill="black"/>
<path d="M868.29 174.506C869.944 188.498 870.831 202.067 870.314 215.715C870.126 220.675 869.217 225.313 865.692 229.042C864.546 230.254 864.352 231.618 864.289 233.151C863.785 245.317 864.933 257.376 866.691 269.386C868.397 281.042 870.352 292.691 870.205 304.502C870.099 313.046 871.58 321.355 872.843 329.718C873.694 335.356 873.658 341.061 873.052 346.65C872.324 353.363 864.371 360.014 856.472 361.415C843.222 363.766 834.175 356.53 832.794 342.956C831.95 334.664 833.375 326.74 835.36 318.818C838.318 307.006 840.051 295.234 839.21 282.841C838.277 269.103 838.121 255.21 839.583 241.419C840.013 237.357 839.78 234.904 834.394 234.122C821.739 232.284 815.91 224.873 814.794 212.082C813.596 198.368 816.391 184.943 817.244 171.384C818.087 157.967 819.896 144.611 820.772 131.195C822.288 107.975 823.477 84.7335 824.652 61.4935C824.98 55.0117 824.936 48.4997 824.79 42.0077C824.505 29.3355 829.62 18.6517 837.076 8.97838C841.93 2.68111 849.407 4.09654 852.125 11.5511C854.245 17.3659 854.087 23.6259 855.291 29.6267C858.683 46.5297 858.097 63.854 860.947 80.8626C863.049 93.405 863.104 106.28 864.322 118.983C866.079 137.31 866.012 155.764 868.29 174.506ZM826.337 226.752C830.321 229.086 834.47 230.051 839.083 228.591C838.641 225.336 836.901 223.056 835.403 220.701C831.688 214.862 828.449 208.6 828.146 201.751C827.477 186.623 827.274 171.457 828.391 156.317C828.849 150.105 830.642 144.03 828.251 137.634C826.486 132.912 827.827 126.717 830.202 123.587C831.504 143.845 831.892 163.43 830.616 183.037C829.84 194.967 830.102 206.595 837.101 217.121C844.74 228.61 847.583 241.51 847.344 255.194C847.266 259.691 846.967 264.237 847.47 268.681C849.629 287.765 848.414 306.481 842.664 324.9C840.889 330.588 839.917 336.517 840.273 342.598C841.058 355.999 850.629 361.005 861.954 353.93C869.309 349.334 869.491 342.305 868.532 334.951C867.438 326.555 866.189 318.209 865.635 309.72C864.964 299.458 864.601 289.164 863.192 278.919C861.542 266.925 859.666 254.861 859.995 242.719C860.149 237.024 859.413 230.831 862.287 225.694C864.236 222.211 865.595 218.804 865.745 214.978C866.162 204.327 865.96 193.668 864.65 183.084C861.872 160.641 861.391 138.042 859.796 115.519C859.034 104.76 858.446 93.962 857.034 83.2801C855.033 68.1434 853.397 52.9767 851.788 37.7985C850.95 29.8852 849.557 22.0264 848.247 14.1706C847.959 12.4397 847.427 10.3731 845.293 9.89472C843.089 9.40064 841.378 10.6965 840.123 12.2894C840.112 12.3024 840.102 12.3153 840.092 12.3283C837.424 15.7125 834.73 19.1306 833.839 23.5157C832.014 32.5049 830.707 41.7206 831.576 50.7413C833.297 68.5964 831.641 86.3204 831.063 104.093C831.062 104.122 831.061 104.15 831.061 104.179C830.981 106.64 830.895 109.298 828.577 111.441C828.876 86.9575 831.309 62.4961 828.205 38.0849C829.268 56.4177 827.395 74.6914 827.239 93.0022C827.181 99.8076 826.663 106.618 826.127 113.409C824.927 128.625 823.565 143.829 822.304 159.041C821.097 173.593 819.582 188.131 818.885 202.708C818.482 211.128 818.732 219.819 826.337 226.752ZM844.781 262.05C844.781 259.299 844.781 256.548 844.781 253.797C843.002 268.183 844.931 282.542 844.78 296.915C844.78 285.617 844.78 274.318 844.781 262.05Z" fill="#EBF2D5"/>
<path d="M826.337 226.752C830.321 229.086 834.47 230.051 839.083 228.591C838.641 225.336 836.901 223.056 835.403 220.701C831.688 214.862 828.449 208.6 828.146 201.751C827.477 186.623 827.274 171.457 828.391 156.317C828.849 150.105 830.642 144.03 828.251 137.634C826.486 132.912 827.827 126.717 830.202 123.587C831.504 143.845 831.892 163.43 830.616 183.037C829.84 194.967 830.102 206.595 837.101 217.121C844.74 228.61 847.583 241.51 847.344 255.194C847.266 259.691 846.967 264.237 847.47 268.681C849.629 287.765 848.414 306.481 842.664 324.9C840.889 330.588 839.917 336.517 840.273 342.598C841.058 355.999 850.629 361.005 861.954 353.93C869.309 349.334 869.491 342.305 868.532 334.951C867.438 326.555 866.189 318.209 865.635 309.72C864.964 299.458 864.601 289.164 863.192 278.919C861.542 266.925 859.666 254.861 859.995 242.719C860.149 237.024 859.413 230.831 862.287 225.694C864.236 222.211 865.595 218.804 865.745 214.978C866.162 204.327 865.96 193.668 864.65 183.084C861.872 160.641 861.391 138.042 859.796 115.519C859.034 104.76 858.446 93.962 857.034 83.2801C855.033 68.1434 853.397 52.9767 851.788 37.7985C850.95 29.8852 849.557 22.0264 848.247 14.1706C847.959 12.4397 847.427 10.3731 845.293 9.89472C843.089 9.40064 841.378 10.6965 840.123 12.2894L840.092 12.3283C837.424 15.7125 834.73 19.1306 833.839 23.5157C832.014 32.5049 830.707 41.7206 831.576 50.7413C833.297 68.5964 831.641 86.3204 831.063 104.093L831.061 104.179C830.981 106.64 830.895 109.298 828.577 111.441C828.876 86.9575 831.309 62.4961 828.205 38.0849C829.268 56.4177 827.395 74.6914 827.239 93.0022C827.181 99.8076 826.663 106.618 826.127 113.409C824.927 128.625 823.565 143.829 822.304 159.041C821.097 173.593 819.582 188.131 818.885 202.708C818.482 211.128 818.732 219.819 826.337 226.752Z" fill="#942D2D"/>
<path d="M678 248.5L826.5 36C825.328 58.0646 826.5 86.5 823.5 92.5C820.5 98.5 716.5 246.5 716.5 246.5H839.5V282H678V248.5Z" fill="#942D2D" stroke="#EBF2D5" stroke-width="2"/>
<path d="M917 282H866.5L863 246.5H917V282Z" fill="#942D2D" stroke="#EBF2D5" stroke-width="2"/>
</svg>
